<?xml version="1.0" encoding="utf-8"?>
<!-- Generator: Adobe Illustrator 19.0.0, SVG Export Plug-In . SVG Version: 6.00 Build 0)  -->
<svg version="1.1" id="Layer_1" xmlns="http://www.w3.org/2000/svg" xmlns:xlink="http://www.w3.org/1999/xlink" x="0px" y="0px"
	 viewBox="-120 335.8 369.7 122.2" style="enable-background:new -120 335.8 369.7 122.2;" xml:space="preserve">
<style type="text/css">
	.st0{fill:#FFFFFF;}
	.st1{fill:#8B0203;}
	.st2{fill:#7F0000;}
	.st3{fill:#004080;}
	.st4{fill:#004071;}
</style>
<g>
	<path class="st0" d="M-59,335.8h55.1v52.8h-12.4v-40.5h-30.3c-0.1,3.7-0.1,7.5-0.1,11.4c0,3.9,0,7.7,0,11.4H-59V336
		C-59,335.9-59,335.8-59,335.8L-59,335.8z"/>
	<path class="st0" d="M2.7,335.9h56.6v52.5H2.6v-52.2C2.6,336.1,2.6,336,2.7,335.9L2.7,335.9z M14.9,348.5v27.6h32v-27.8h-32
		C14.9,348.3,14.9,348.4,14.9,348.5L14.9,348.5z"/>
	<path class="st0" d="M123.3,335.7v52.8h-12.4v-40.4H79c0,2,0,3.9,0,5.6c0,1.7,0,3.4,0,5.2c2,0.1,4.1,0.2,6.2,0.1
		c2.1-0.1,4.1,0,6.2,0.1v12.2H79.2c0,3,0,5.9,0,8.7c0,2.8,0,5.6,0,8.5H66.8v-52.8H123.3L123.3,335.7z"/>
	<path class="st0" d="M132,335.8h12.3V356c5.3,0.1,10.6,0.1,15.9,0.1c5.4,0,10.7,0,16.1,0c0-0.8,0-1.6,0-2.4c0-0.8,0-1.6,0-2.4
		c2,0,4.1,0.1,6.2,0.1c2.1,0,4.1,0,6.1,0v37.2h-12.3v-20.3h-32v20.2h-12.4V336C131.9,335.9,131.9,335.8,132,335.8L132,335.8z"/>
	<polygon class="st1" points="-46.7,376.3 -59,376.3 -59,388.6 -46.7,388.6 	"/>
	<polygon class="st2" points="107.2,359.1 94.9,359.1 94.9,371.4 107.2,371.4 	"/>
	<polygon class="st1" points="188.7,335.8 176.3,335.8 176.3,348.1 188.7,348.1 	"/>
	<polygon class="st2" points="37.1,356 24.8,356 24.8,368.3 37.1,368.3 	"/>
</g>
<path class="st0" d="M-91.5,405.7h27.9c0,8.7,0,17.4,0,26.1s0,17.4-0.1,26H-120v-21.7h12.3v9.4h31.8c0.1-4.5,0.1-9.1,0.1-13.7
	c0-4.6,0-9.2,0-13.8h-15.7c-0.1-2-0.1-4-0.1-6s0-4.1,0-6.1C-91.6,405.8-91.5,405.7-91.5,405.7L-91.5,405.7z"/>
<path class="st0" d="M-55.6,404.3H0.5v12.4h-43.7c-0.1,1.2-0.1,2.6-0.1,3.9c0,1.4,0,2.7,0,4.1h21.5v12.4h-21.4v8.5
	c7.2,0.1,14.5,0.1,21.8,0.1s14.6,0,21.9,0V458H-54c-0.2,0-0.5,0-0.8,0s-0.6,0-0.8-0.1L-55.6,404.3L-55.6,404.3z"/>
<path class="st0" d="M7.9,405.2H63V458H50.6v-40.5H20.2c-0.1,3.7-0.1,7.5-0.1,11.4c0,3.8,0,7.7,0,11.4H7.8v-34.9
	C7.9,405.3,7.9,405.2,7.9,405.2L7.9,405.2z"/>
<path class="st0" d="M69.5,405h37.8v12.3H81.8c-0.1,0.8-0.1,1.6-0.1,2.4c0,0.9,0,1.7,0,2.5c7,0.1,13.9,0.1,20.9,0.1s14,0,21,0v35.5
	c-9,0.1-18,0.1-26.9,0.1s-18,0-27,0v-12.4h41.5c0.1-1.7,0.1-3.5,0.1-5.3s0-3.6,0-5.5H69.4v-29.4C69.4,405.1,69.5,405,69.5,405
	L69.5,405z"/>
<path class="st0" d="M131.1,404.3h56.1v12.4h-43.6c-0.1,1.2-0.1,2.6-0.1,3.9c0,1.4,0,2.7,0,4.1H165v12.4h-21.5v8.5
	c7.2,0.1,14.5,0.1,21.8,0.1s14.6,0,21.9,0V458h-54.4c-0.2,0-0.5,0-0.8,0s-0.6,0-0.8-0.1L131.1,404.3L131.1,404.3z"/>
<path class="st0" d="M194.6,405.2h55.1V458h-12.4v-40.5H207c-0.1,3.7-0.1,7.5-0.1,11.4c0,3.8,0,7.7,0,11.4h-12.3v-34.9
	C194.6,405.3,194.6,405.2,194.6,405.2L194.6,405.2z"/>
<polygon class="st3" points="-94.3,405.6 -106.6,405.6 -106.6,417.9 -94.3,417.9 "/>
<polygon class="st4" points="-6.2,424.6 -18.6,424.6 -18.6,437 -6.2,437 "/>
<polygon class="st3" points="20.2,445.5 7.9,445.5 7.9,457.8 20.2,457.8 "/>
<polygon class="st3" points="123.6,405 111.3,405 111.3,417.4 123.6,417.4 "/>
<polygon class="st3" points="180.7,424.7 168.3,424.7 168.3,437 180.7,437 "/>
<polygon class="st4" points="206.9,445.6 194.6,445.6 194.6,457.9 206.9,457.9 "/>
</svg>
