<?xml version="1.0" encoding="utf-8"?>
<!-- Generator: Adobe Illustrator 19.0.0, SVG Export Plug-In . SVG Version: 6.00 Build 0)  -->
<svg version="1.1" id="Layer_1" xmlns="http://www.w3.org/2000/svg" xmlns:xlink="http://www.w3.org/1999/xlink" x="0px" y="0px"
	 viewBox="0 0 430.8 35.8" style="enable-background:new 0 0 430.8 35.8;" xml:space="preserve">
<style type="text/css">
	.st0{fill-rule:evenodd;clip-rule:evenodd;fill:#8B0203;}
	.st1{fill-rule:evenodd;clip-rule:evenodd;fill:#7F0000;}
	.st2{fill-rule:evenodd;clip-rule:evenodd;fill:#004080;}
	.st3{fill-rule:evenodd;clip-rule:evenodd;fill:#004071;}
</style>
<path id="XMLID_12_" d="M0,1.2h36.1v34.6H28V9.3H8.1c-0.1,2.5-0.1,4.9,0,7.5c0,2.5,0,5,0,7.5H0V1.3C0,1.3,0,1.2,0,1.2L0,1.2z"/>
<path id="XMLID_9_" d="M40.5,1.3h37.1v34.4H40.4V1.4C40.4,1.4,40.4,1.3,40.5,1.3L40.5,1.3z M48.5,9.6v18.1h21V9.4h-21
	C48.5,9.4,48.5,9.5,48.5,9.6L48.5,9.6z"/>
<path id="XMLID_8_" d="M119.5,1.2v34.6h-8.1V9.3H90.5c0,1.3,0,2.5,0,3.7c0,1.1,0,2.3,0,3.4c1.3,0.1,2.7,0.1,4,0.1c1.4,0,2.7,0,4,0.1
	v8h-8c0,2,0,3.9,0,5.7c0,1.8,0,3.7,0,5.5h-8.1V1.2H119.5L119.5,1.2z"/>
<path id="XMLID_7_" d="M125.3,1.2h8.1v13.2c3.5,0.1,6.9,0.1,10.5,0.1c3.5,0,7,0,10.6,0c0-0.5,0-1.1,0-1.6c0-0.5,0-1,0-1.6
	c1.3,0,2.7,0,4,0c1.4,0,2.7,0,4,0v24.4h-8.1V22.5h-21v13.2h-8.1V1.3C125.2,1.3,125.2,1.2,125.3,1.2L125.3,1.2z"/>
<polygon id="XMLID_6_" class="st0" points="8.1,27.7 0,27.7 0,35.8 8.1,35.8 8.1,27.7 "/>
<polygon id="XMLID_5_" class="st1" points="109,16.5 100.9,16.5 100.9,24.6 109,24.6 109,16.5 "/>
<polygon id="XMLID_4_" class="st0" points="162.4,1.2 154.3,1.2 154.3,9.3 162.4,9.3 162.4,1.2 "/>
<polygon id="XMLID_3_" class="st1" points="63,14.5 55,14.5 55,22.5 63,22.5 63,14.5 "/>
<path id="XMLID_24_" d="M205.2,1h18.5c0,5.8,0,11.5,0,17.3c0,5.7,0,11.5,0,17.2h-37.3V21.1h8.1v6.2h21c0.1-3,0.1-6,0-9
	c0-3,0-6.1,0-9.1h-10.3c-0.1-1.3-0.1-2.6,0-4c0-1.3,0-2.7,0-4C205.1,1,205.2,1,205.2,1L205.2,1z"/>
<path id="XMLID_23_" d="M228.9,0H266v8.2h-28.8c-0.1,0.8-0.1,1.7-0.1,2.6c0,0.9,0,1.8,0,2.7h14.2v8.2h-14.2v5.6
	c4.8,0.1,9.6,0.1,14.4,0c4.8,0,9.6,0,14.5,0v8.1h-36c-0.2,0-0.3,0-0.5,0s-0.4,0-0.5-0.1V0L228.9,0z"/>
<path id="XMLID_22_" d="M270.9,0.6h36.4v34.9h-8.2V8.8h-20.1c-0.1,2.5-0.1,5,0,7.5s0,5.1,0,7.6h-8.1V0.8
	C270.9,0.7,270.9,0.6,270.9,0.6L270.9,0.6z"/>
<path id="XMLID_21_" d="M311.6,0.5h25v8.1h-16.9c-0.1,0.5-0.1,1,0,1.6c0,0.6,0,1.1,0,1.7c4.6,0.1,9.2,0.1,13.8,0c4.6,0,9.2,0,13.9,0
	v23.4c-5.9,0.1-11.9,0.1-17.8,0c-5.9,0-11.9,0-17.9,0v-8.2h27.5c0.1-1.1,0.1-2.3,0-3.5c0-1.2,0-2.4,0-3.6h-27.7V0.7
	C311.6,0.6,311.6,0.5,311.6,0.5L311.6,0.5z"/>
<path id="XMLID_20_" d="M352.3,0h37.1v8.2h-28.8c-0.1,0.8-0.1,1.7-0.1,2.6c0,0.9,0,1.8,0,2.7h14.2v8.2h-14.2v5.6
	c4.8,0.1,9.6,0.1,14.4,0c4.8,0,9.6,0,14.5,0v8.1h-36c-0.2,0-0.3,0-0.5,0s-0.4,0-0.5-0.1V0L352.3,0z"/>
<path id="XMLID_19_" d="M394.4,0.6h36.4v34.9h-8.2V8.8h-20.1c-0.1,2.5-0.1,5,0,7.5c0,2.5,0,5.1,0,7.6h-8.1V0.8
	C394.3,0.7,394.3,0.6,394.4,0.6L394.4,0.6z"/>
<polygon id="XMLID_18_" class="st2" points="203.4,0.9 195.2,0.9 195.2,9 203.4,9 203.4,0.9 "/>
<polygon id="XMLID_17_" class="st3" points="261.6,13.5 253.4,13.5 253.4,21.6 261.6,21.6 261.6,13.5 "/>
<polygon id="XMLID_16_" class="st2" points="279,27.3 270.9,27.3 270.9,35.4 279,35.4 279,27.3 "/>
<polygon id="XMLID_15_" class="st2" points="347.4,0.5 339.3,0.5 339.3,8.7 347.4,8.7 347.4,0.5 "/>
<polygon id="XMLID_14_" class="st2" points="385.1,13.5 377,13.5 377,21.6 385.1,21.6 385.1,13.5 "/>
<polygon id="XMLID_13_" class="st3" points="402.5,27.3 394.4,27.3 394.4,35.5 402.5,35.5 402.5,27.3 "/>
</svg>
